<svg width="407" height="120" viewBox="0 0 407 120" fill="none" xmlns="http://www.w3.org/2000/svg">
<path d="M96.8301 99.9146H91.9901V98.7159H102.99V99.9146H98.1501V112.876H96.8301V99.9146Z" fill="black"/>
<path d="M113.169 98.7154H121.829V99.9141H114.489V104.955H121.369V106.155H114.489V111.674H122.149V112.875H113.169V98.7154Z" fill="black"/>
<path d="M144.689 110.655C144.009 111.574 143.223 112.237 142.329 112.634C141.436 113.034 140.469 113.235 139.429 113.235C138.349 113.235 137.36 113.051 136.46 112.685C135.56 112.318 134.789 111.803 134.149 111.145C133.509 110.485 133.009 109.698 132.649 108.786C132.289 107.871 132.109 106.874 132.109 105.794C132.109 104.714 132.289 103.722 132.649 102.815C133.009 101.909 133.509 101.126 134.149 100.465C134.789 99.806 135.56 99.2886 136.46 98.9153C137.36 98.5406 138.349 98.3553 139.429 98.3553C140.389 98.3553 141.287 98.5246 142.12 98.8646C142.952 99.2046 143.683 99.774 144.309 100.575L143.229 101.475C142.789 100.809 142.227 100.322 141.54 100.015C140.853 99.7086 140.149 99.5553 139.429 99.5553C138.509 99.5553 137.68 99.714 136.939 100.035C136.199 100.354 135.569 100.795 135.049 101.355C134.529 101.915 134.129 102.574 133.849 103.334C133.569 104.094 133.429 104.914 133.429 105.794C133.429 106.674 133.569 107.494 133.849 108.254C134.129 109.015 134.529 109.675 135.049 110.235C135.569 110.794 136.199 111.235 136.939 111.555C137.68 111.874 138.509 112.035 139.429 112.035C139.789 112.035 140.163 111.991 140.549 111.905C140.936 111.819 141.312 111.685 141.68 111.505C142.045 111.325 142.396 111.098 142.729 110.825C143.063 110.551 143.356 110.222 143.609 109.835L144.689 110.655Z" fill="black"/>
<path d="M155.109 98.7154H156.429V104.955H164.349V98.7154H165.669V112.875H164.349V106.155H156.429V112.875H155.109V98.7154Z" fill="black"/>
<path d="M177.549 98.7154H179.249L187.869 111.114H187.909V98.7154H189.229V112.875H187.529L178.909 100.474H178.869V112.875H177.549V98.7154Z" fill="black"/>
<path d="M201.509 105.795C201.509 106.673 201.649 107.493 201.929 108.255C202.209 109.015 202.609 109.675 203.129 110.235C203.649 110.795 204.279 111.235 205.018 111.555C205.759 111.875 206.589 112.036 207.509 112.036C208.43 112.036 209.259 111.875 209.999 111.555C210.738 111.235 211.369 110.795 211.889 110.235C212.409 109.675 212.809 109.015 213.089 108.255C213.369 107.493 213.509 106.673 213.509 105.795C213.509 104.915 213.369 104.095 213.089 103.333C212.809 102.575 212.409 101.915 211.889 101.355C211.369 100.795 210.738 100.353 209.999 100.035C209.259 99.7148 208.43 99.5548 207.509 99.5548C206.589 99.5548 205.759 99.7148 205.018 100.035C204.279 100.353 203.649 100.795 203.129 101.355C202.609 101.915 202.209 102.575 201.929 103.333C201.649 104.095 201.509 104.915 201.509 105.795ZM200.189 105.795C200.189 104.713 200.37 103.721 200.73 102.816C201.089 101.908 201.59 101.125 202.229 100.464C202.87 99.8055 203.639 99.2881 204.539 98.9148C205.439 98.5415 206.429 98.3548 207.509 98.3548C208.589 98.3548 209.579 98.5415 210.479 98.9148C211.379 99.2881 212.149 99.8055 212.789 100.464C213.43 101.125 213.929 101.908 214.289 102.816C214.649 103.721 214.83 104.713 214.83 105.795C214.83 106.875 214.649 107.872 214.289 108.785C213.929 109.699 213.43 110.485 212.789 111.145C212.149 111.804 211.379 112.319 210.479 112.685C209.579 113.051 208.589 113.235 207.509 113.235C206.429 113.235 205.439 113.051 204.539 112.685C203.639 112.319 202.87 111.804 202.229 111.145C201.59 110.485 201.089 109.699 200.73 108.785C200.37 107.872 200.189 106.875 200.189 105.795Z" fill="black"/>
<path d="M225.788 98.7154H227.108V111.674H233.708V112.875H225.788V98.7154Z" fill="black"/>
<path d="M244.189 105.795C244.189 106.673 244.327 107.493 244.607 108.255C244.889 109.015 245.289 109.675 245.809 110.235C246.327 110.795 246.958 111.235 247.698 111.555C248.439 111.875 249.27 112.036 250.189 112.036C251.109 112.036 251.938 111.875 252.678 111.555C253.418 111.235 254.049 110.795 254.569 110.235C255.089 109.675 255.489 109.015 255.769 108.255C256.049 107.493 256.189 106.673 256.189 105.795C256.189 104.915 256.049 104.095 255.769 103.333C255.489 102.575 255.089 101.915 254.569 101.355C254.049 100.795 253.418 100.353 252.678 100.035C251.938 99.7148 251.109 99.5548 250.189 99.5548C249.27 99.5548 248.439 99.7148 247.698 100.035C246.958 100.353 246.327 100.795 245.809 101.355C245.289 101.915 244.889 102.575 244.607 103.333C244.327 104.095 244.189 104.915 244.189 105.795ZM242.869 105.795C242.869 104.713 243.05 103.721 243.409 102.816C243.769 101.908 244.27 101.125 244.909 100.464C245.55 99.8055 246.319 99.2881 247.218 98.9148C248.118 98.5415 249.107 98.3548 250.189 98.3548C251.269 98.3548 252.259 98.5415 253.159 98.9148C254.058 99.2881 254.829 99.8055 255.469 100.464C256.109 101.125 256.607 101.908 256.969 102.816C257.329 103.721 257.509 104.713 257.509 105.795C257.509 106.875 257.329 107.872 256.969 108.785C256.607 109.699 256.109 110.485 255.469 111.145C254.829 111.804 254.058 112.319 253.159 112.685C252.259 113.051 251.269 113.235 250.189 113.235C249.107 113.235 248.118 113.051 247.218 112.685C246.319 112.319 245.55 111.804 244.909 111.145C244.27 110.485 243.769 109.699 243.409 108.785C243.05 107.872 242.869 106.875 242.869 105.795Z" fill="black"/>
<path d="M280.148 111.956C279.322 112.421 278.464 112.752 277.578 112.945C276.691 113.137 275.787 113.235 274.868 113.235C273.787 113.235 272.798 113.051 271.899 112.685C270.999 112.317 270.228 111.804 269.588 111.145C268.948 110.484 268.448 109.699 268.088 108.785C267.728 107.872 267.548 106.873 267.548 105.795C267.548 104.713 267.728 103.721 268.088 102.816C268.448 101.908 268.948 101.125 269.588 100.464C270.228 99.8055 270.999 99.2881 271.899 98.9148C272.798 98.5401 273.787 98.3548 274.868 98.3548C276.975 98.3548 278.675 99.0081 279.967 100.315L279.008 101.315C278.794 101.063 278.531 100.824 278.219 100.604C277.904 100.385 277.566 100.197 277.198 100.044C276.831 99.8921 276.448 99.7708 276.048 99.6855C275.648 99.5988 275.254 99.5548 274.868 99.5548C273.948 99.5548 273.119 99.7148 272.378 100.035C271.638 100.353 271.008 100.795 270.488 101.355C269.967 101.915 269.568 102.575 269.287 103.333C269.008 104.095 268.867 104.915 268.867 105.795C268.867 106.673 269.008 107.493 269.287 108.255C269.568 109.015 269.967 109.675 270.488 110.235C271.008 110.795 271.638 111.235 272.378 111.555C273.119 111.873 273.948 112.036 274.868 112.036C275.627 112.036 276.342 111.976 277.008 111.855C277.675 111.735 278.282 111.515 278.828 111.196V106.435H275.428V105.235H280.148V111.956Z" fill="black"/>
<path d="M295.168 106.775L289.969 98.7154H291.548L295.828 105.435L300.208 98.7154H301.689L296.488 106.775V112.875H295.168V106.775Z" fill="black"/>
<path d="M0 111.14C0 115.742 3.73067 119.473 8.33333 119.473H67.2227C71.824 119.473 75.556 115.742 75.556 111.14V52.2504C75.556 47.6478 71.824 43.9171 67.2227 43.9171H8.33333C3.73067 43.9171 0 47.6478 0 52.2504V111.14Z" fill="black"/>
<path d="M67.4713 13.5027C67.4713 20.96 61.426 27.0053 53.9687 27.0053C46.5113 27.0053 40.466 20.96 40.466 13.5027C40.466 6.04534 46.5113 7.62939e-06 53.9687 7.62939e-06C61.426 7.62939e-06 67.4713 6.04534 67.4713 13.5027Z" fill="#FC4605"/>
<path d="M42.1009 119.473C51.4236 93.2144 67.8783 76.0304 67.4636 39.0384L67.4676 29.8691C65.0943 29.9184 35.8703 31.1557 35.8703 61.6211V119.473H42.1009Z" fill="#FC4605"/>
<path d="M98.3367 59.7922V89.5496C98.3367 89.9762 97.9633 90.3495 97.5367 90.3495H92.79C92.3647 90.3495 91.99 89.9762 91.99 89.5496V59.7922C91.99 59.3656 92.3647 58.9922 92.79 58.9922H97.5367C97.9633 58.9922 98.3367 59.3656 98.3367 59.7922Z" fill="black"/>
<path d="M139.295 59.9517V88.0571C139.295 88.4304 139.187 88.7504 139.08 89.0171C138.975 89.3371 138.762 89.5504 138.548 89.7624C138.335 89.9237 138.068 90.0824 137.802 90.1891C137.482 90.2437 137.215 90.2957 136.895 90.2957H133.162C132.255 90.2957 131.935 89.4957 131.935 89.4957L121.696 69.6037C121.27 68.5904 120.63 67.3651 120.203 66.0317H120.15C120.31 67.2584 120.576 68.1117 120.576 70.1384C120.576 71.3117 120.63 72.4837 120.63 73.7104V89.3371C120.63 89.4957 120.576 89.6557 120.47 89.8171C120.363 89.9237 120.256 90.0304 120.043 90.1371C119.776 90.2437 119.563 90.3491 119.136 90.3491H116.31C115.883 90.3491 115.67 90.2437 115.456 90.1371C115.243 90.0304 115.083 89.9237 115.03 89.8171C114.923 89.6557 114.87 89.4957 114.87 89.3371V61.2851C114.87 60.5384 115.136 59.9517 115.563 59.5784C115.99 59.2051 116.523 59.0451 117.163 59.0451H121.856C122.763 59.0451 123.136 59.7917 123.136 59.7917L132.788 79.0437C133.108 79.6837 133.482 80.5904 133.855 81.6037C133.695 80.4837 133.588 79.8971 133.588 77.4437C133.588 76.2171 133.535 75.0451 133.535 73.9237V59.9517C133.535 59.7917 133.588 59.6851 133.695 59.5251C133.802 59.4184 133.962 59.3131 134.175 59.2051C134.388 59.0984 134.762 58.9917 135.188 58.9917H137.748C138.228 58.9917 138.548 59.0984 138.762 59.2051C138.922 59.3131 139.08 59.4184 139.135 59.5251C139.242 59.6851 139.295 59.7917 139.295 59.9517Z" fill="black"/>
<path d="M155.029 89.6034V85.8167C155.029 85.1767 155.776 85.2834 155.776 85.2834H162.921C165.535 85.2834 167.829 84.27 167.829 81.4967C167.829 79.4167 165.375 78.1367 163.668 77.4434C160.841 76.3247 158.443 75.31 156.736 73.2847C156.096 72.6447 155.563 71.7914 155.136 70.8314C154.816 69.978 154.603 68.8047 154.603 67.5247C154.603 66.0314 154.923 65.178 155.456 64.1114C157.109 60.4327 161.216 58.9927 165.056 58.9927H172.041C172.041 58.9927 172.681 58.9927 172.681 59.8447V63.258C172.681 63.258 172.681 64.0047 171.723 64.0047H165.161C163.243 64.0047 161.003 64.7514 161.003 66.8847C161.003 68.2714 162.016 69.2314 163.136 69.978C164.468 70.8847 166.175 71.4714 167.723 72.2167C170.175 73.178 172.948 75.0447 173.801 77.658C174.228 78.6167 174.441 79.6847 174.441 80.8567C174.441 87.31 168.523 90.35 162.921 90.35H155.669C154.923 90.35 155.029 89.6034 155.029 89.6034Z" fill="black"/>
<path d="M195.669 59.7922V89.5496C195.669 89.9762 195.297 90.3495 194.869 90.3495H190.122C189.697 90.3495 189.323 89.9762 189.323 89.5496V59.7922C189.323 59.3656 189.697 58.9922 190.122 58.9922H194.869C195.297 58.9922 195.669 59.3656 195.669 59.7922Z" fill="black"/>
<path d="M232.787 64.2184V67.4704C232.787 67.8971 232.468 68.2184 232.04 68.2184H227.455C227.028 68.2184 226.653 67.8971 226.653 67.4704V66.3517C226.601 65.5517 226.175 63.6851 223.935 63.6851H221.055C218.176 63.6851 218.335 66.7251 218.335 66.7251V82.6691C218.335 82.6691 218.176 85.6571 221.055 85.6571H223.881C226.175 85.6571 226.548 83.7904 226.653 82.9904V77.3371H222.495C222.175 77.3371 221.908 77.0704 221.908 76.7504V72.8037C221.908 72.4837 222.175 72.2171 222.495 72.2171H232.201C232.521 72.2171 232.735 72.4837 232.735 72.8037V76.2704L232.787 85.1237C232.787 85.1237 232.948 90.3491 225.961 90.3491H219.029C212.043 90.3491 212.203 85.1237 212.203 85.1237V64.2184C212.203 64.2184 212.043 58.9917 219.029 58.9917H225.961C233 58.9917 232.787 64.2184 232.787 64.2184Z" fill="black"/>
<path d="M270.654 59.7922V89.5496C270.654 89.9762 270.334 90.3495 269.907 90.3495H265.107C264.682 90.3495 264.307 89.9762 264.307 89.5496V76.8042H255.668L255.615 89.5496C255.615 89.9762 255.294 90.3495 254.814 90.3495H250.068C249.642 90.3495 249.268 89.9762 249.268 89.5496V59.7922C249.268 59.3656 249.642 58.9922 250.068 58.9922H254.814C255.294 58.9922 255.615 59.3656 255.615 59.7922L255.668 71.3642H264.307V59.7922C264.307 59.3656 264.682 58.9922 265.107 58.9922H269.907C270.334 58.9922 270.654 59.3656 270.654 59.7922Z" fill="black"/>
<path d="M306.546 59.578V63.418C306.546 63.8994 306.279 64.1647 305.799 64.1647H298.652V89.6034C298.652 90.03 298.334 90.35 297.962 90.35H292.948C292.414 90.35 292.254 90.082 292.254 89.6034V64.1647H285.055C284.628 64.1647 284.36 63.9514 284.36 63.578V59.578C284.36 59.1514 284.682 58.9927 285.055 58.9927H305.799C306.279 58.9927 306.546 59.258 306.546 59.578Z" fill="black"/>
<path d="M326.652 89.7104C326.652 90.0824 326.386 90.3491 326.014 90.3491H321.106C320.68 90.3491 320.308 90.0304 320.308 89.5504V60.9651C320.308 60.2717 320.467 59.7384 320.839 59.4184C321.214 59.0997 321.639 58.9917 322.174 58.9917H337.746C338.118 58.9917 338.384 59.2584 338.384 59.6317V63.4717C338.384 63.8451 338.118 64.1651 337.746 64.1651H326.652V72.2171H337.32C337.691 72.2171 337.958 72.4851 337.958 72.8584V76.6971C337.958 77.0171 337.691 77.3371 337.32 77.3371H326.652V89.7104Z" fill="#FC4605"/>
<path d="M367.72 90.3495H361.002C354.335 90.3495 354.495 85.3362 354.495 85.3362V59.7389C354.495 59.3122 354.814 58.9922 355.24 58.9922H359.508C359.934 58.9922 360.252 59.3122 360.252 59.7389V82.9909C360.252 82.9909 360.094 85.8695 362.867 85.8695H365.852C368.626 85.8695 368.467 82.9909 368.467 82.9909V59.7389C368.467 59.3122 368.786 58.9922 369.159 58.9922H373.479C373.906 58.9922 374.224 59.3122 374.224 59.7389V85.3362C374.224 85.3362 374.387 90.3495 367.72 90.3495Z" fill="#FC4605"/>
<path d="M406.012 86.4037V89.7104C406.012 90.0824 405.745 90.3491 405.373 90.3491H392.626C392.093 90.3491 391.665 90.1891 391.294 89.8704C390.921 89.5504 390.761 89.0704 390.761 88.3757V59.7931C390.761 59.3651 391.08 58.9917 391.561 58.9917H396.308C396.734 58.9917 397.053 59.3651 397.053 59.7931L397.105 85.7637H405.373C405.745 85.7637 406.012 86.0837 406.012 86.4037Z" fill="#FC4605"/>
</svg>
